<svg width="29" height="28" viewBox="0 0 29 28" fill="none" xmlns="http://www.w3.org/2000/svg">
<path d="M21.5 9.22831V18.6666C21.5 20.5232 20.7625 22.3036 19.4497 23.6164C18.137 24.9292 16.3565 25.6667 14.5 25.6667C12.6435 25.6667 10.863 24.9292 9.55025 23.6164C8.2375 22.3036 7.5 20.5232 7.5 18.6666V6.99998C7.5 5.7623 7.99167 4.57532 8.86684 3.70015C9.74201 2.82498 10.929 2.33331 12.1667 2.33331C13.4043 2.33331 14.5913 2.82498 15.4665 3.70015C16.3417 4.57532 16.8333 5.7623 16.8333 6.99998V17.7123C16.8333 18.0187 16.773 18.3222 16.6557 18.6052C16.5385 18.8883 16.3666 19.1456 16.1499 19.3622C15.9332 19.5789 15.676 19.7508 15.3929 19.868C15.1098 19.9853 14.8064 20.0456 14.5 20.0456C13.8812 20.0456 13.2877 19.7998 12.8501 19.3622C12.4125 18.9246 12.1667 18.3312 12.1667 17.7123V9.33331" stroke="#101136" stroke-width="2" stroke-linecap="round" stroke-linejoin="round"/>
</svg>
