<svg width="12" height="16" viewBox="0 0 12 16" fill="none" xmlns="http://www.w3.org/2000/svg">
<path fill-rule="evenodd" clip-rule="evenodd" d="M7.05742 0.833344C7.37045 0.83342 7.67347 0.943633 7.91341 1.14468L8.00008 1.22401L10.9427 4.16668C11.1641 4.38803 11.3005 4.6802 11.3281 4.99201L11.3334 5.10934V12.8333C11.3335 13.1697 11.2065 13.4937 10.9778 13.7404C10.749 13.987 10.4355 14.1381 10.1001 14.1633L10.0001 14.1667H2.00008C1.6637 14.1668 1.3397 14.0397 1.09305 13.811C0.846395 13.5823 0.69531 13.2688 0.670082 12.9333L0.666748 12.8333V2.16668C0.666642 1.83029 0.793686 1.5063 1.02241 1.25964C1.25114 1.01299 1.56464 0.861906 1.90008 0.836677L2.00008 0.833344H7.05742ZM6.00008 2.16668H2.00008V12.8333H10.0001V6.16668H7.00008C6.75149 6.16666 6.51182 6.07406 6.3278 5.90693C6.14378 5.7398 6.02861 5.51012 6.00475 5.26268L6.00008 5.16668V2.16668ZM6.65875 7.39868C6.81833 8.41405 7.34933 9.33397 8.14875 9.98001C8.74008 10.458 8.19941 11.394 7.49008 11.1213C6.53106 10.7521 5.4691 10.7521 4.51008 11.1213C3.80008 11.3947 3.25941 10.458 3.85075 9.98001C4.65017 9.33397 5.18116 8.41405 5.34075 7.39868C5.45941 6.64734 6.54075 6.64801 6.65875 7.39868ZM5.99875 8.93468L5.54008 9.73201H6.46008L5.99875 8.93468ZM7.33342 2.44268V4.83334H9.72408L7.33342 2.44268Z" fill="black"/>
</svg>
