<svg width="16" height="16" viewBox="0 0 16 16" fill="none" xmlns="http://www.w3.org/2000/svg">
<path d="M8 2.5C6.9122 2.5 5.84884 2.82257 4.94437 3.42692C4.0399 4.03126 3.33495 4.89025 2.91867 5.89524C2.50238 6.90023 2.39346 8.0061 2.60568 9.073C2.8179 10.1399 3.34173 11.1199 4.11092 11.8891C4.8801 12.6583 5.86011 13.1821 6.92701 13.3943C7.9939 13.6065 9.09977 13.4976 10.1048 13.0813C11.1098 12.6651 11.9687 11.9601 12.5731 11.0556C13.1774 10.1512 13.5 9.0878 13.5 8C13.5 6.54131 12.9205 5.14236 11.8891 4.11091C10.8576 3.07946 9.45869 2.5 8 2.5Z" stroke="black" stroke-width="1.25" stroke-miterlimit="10"/>
<path d="M6.25 6.32156C6.25 6.32156 6.27625 5.77468 6.86156 5.30374C7.20875 5.02406 7.625 4.94312 8 4.93749C8.34156 4.93312 8.64656 4.98968 8.82906 5.07656C9.14156 5.22531 9.75 5.58843 9.75 6.36062C9.75 7.17312 9.21875 7.54218 8.61344 7.94812C8.00813 8.35406 7.84375 8.79468 7.84375 9.24999" stroke="black" stroke-width="1.25" stroke-miterlimit="10" stroke-linecap="round"/>
<path d="M7.8125 11.5C8.15768 11.5 8.4375 11.2202 8.4375 10.875C8.4375 10.5298 8.15768 10.25 7.8125 10.25C7.46732 10.25 7.1875 10.5298 7.1875 10.875C7.1875 11.2202 7.46732 11.5 7.8125 11.5Z" fill="black"/>
</svg>
