<svg width="20" height="20" viewBox="0 0 20 20" fill="none" xmlns="http://www.w3.org/2000/svg">
<path d="M7.67821 7.66427C11.0546 4.47389 14.8316 2.96482 16.1138 4.29352C17.3959 5.62223 15.6989 9.28563 12.3223 12.4752C8.94564 15.6648 5.16887 17.1747 3.88652 15.8451C2.60437 14.5164 4.30176 10.8547 7.67821 7.66427Z" stroke="#101136" stroke-width="0.75" stroke-linecap="round" stroke-linejoin="round"/>
<path d="M12.4071 7.74926C15.667 11.0574 17.2311 14.7795 15.902 16.0612C14.5727 17.3438 10.8524 15.6998 7.59294 12.39C4.33346 9.08022 2.7689 5.35975 4.09824 4.07722C5.42656 2.79528 9.14759 4.43948 12.4071 7.74926Z" stroke="#101136" stroke-width="0.75" stroke-linecap="round" stroke-linejoin="round"/>
<path d="M11.25 10C11.25 10.3315 11.1183 10.6495 10.8839 10.8839C10.6495 11.1183 10.3315 11.25 10 11.25C9.66848 11.25 9.35054 11.1183 9.11612 10.8839C8.8817 10.6495 8.75 10.3315 8.75 10C8.75 9.66848 8.8817 9.35054 9.11612 9.11612C9.35054 8.8817 9.66848 8.75 10 8.75C10.3315 8.75 10.6495 8.8817 10.8839 9.11612C11.1183 9.35054 11.25 9.66848 11.25 10Z" stroke="#101136" stroke-width="0.75" stroke-linecap="round" stroke-linejoin="round"/>
</svg>
