<svg width="14" height="15" viewBox="0 0 14 15" fill="none" xmlns="http://www.w3.org/2000/svg">
<path d="M4.08333 8.66666C3.8287 8.66704 3.57721 8.72298 3.34643 8.83058C3.11565 8.93818 2.91113 9.09485 2.74714 9.28965C2.58316 9.48445 2.46366 9.7127 2.39699 9.95845C2.33032 10.2042 2.31808 10.4615 2.36113 10.7125C2.40417 10.9635 2.50147 11.202 2.64623 11.4115C2.79099 11.621 2.97971 11.7964 3.19924 11.9254C3.41877 12.0544 3.66381 12.134 3.91726 12.1585C4.17071 12.1831 4.42646 12.152 4.66666 12.0675" stroke="black" stroke-linecap="round" stroke-linejoin="round"/>
<path d="M2.48745 9.60291C2.13836 9.43485 1.83661 9.18251 1.60944 8.86866C1.38227 8.55481 1.23683 8.18933 1.18624 7.80522C1.13565 7.4211 1.1815 7.03042 1.31966 6.66846C1.45782 6.30649 1.68394 5.98463 1.97761 5.73191M1.99511 5.68466C1.8038 5.39839 1.71995 5.05366 1.75841 4.71151C1.79686 4.36935 1.95514 4.05183 2.20521 3.81516C2.45529 3.5785 2.78104 3.43795 3.1248 3.41839C3.46856 3.39884 3.80814 3.50155 4.08345 3.70833M4.22228 3.74625C4.12922 3.54852 4.08179 3.33241 4.08349 3.11389C4.08519 2.89537 4.13598 2.68002 4.2321 2.48377C4.32822 2.28752 4.46722 2.11538 4.63882 1.98007C4.81042 1.84476 5.01023 1.74975 5.22349 1.70206C5.43675 1.65436 5.658 1.65521 5.87089 1.70452C6.08378 1.75384 6.28287 1.85037 6.45343 1.98698C6.624 2.12359 6.76168 2.29678 6.85631 2.49376C6.95093 2.69074 7.00008 2.90647 7.00011 3.125V12.1667C7.00011 12.4761 6.8772 12.7728 6.6584 12.9916C6.43961 13.2104 6.14286 13.3333 5.83345 13.3333C5.52403 13.3333 5.22728 13.2104 5.00849 12.9916C4.7897 12.7728 4.66678 12.4761 4.66678 12.1667M7.00011 4.58333C7.00011 5.04746 7.18449 5.49258 7.51267 5.82077C7.84086 6.14895 8.28598 6.33333 8.75011 6.33333M9.91678 8.66666C10.1714 8.66704 10.4229 8.72298 10.6537 8.83059C10.8845 8.93819 11.089 9.09486 11.253 9.28966C11.417 9.48446 11.5364 9.7127 11.6031 9.95845C11.6698 10.2042 11.682 10.4615 11.639 10.7125C11.5959 10.9635 11.4986 11.202 11.3539 11.4115C11.2091 11.621 11.0204 11.7964 10.8009 11.9254C10.5813 12.0544 10.3363 12.134 10.0829 12.1585C9.8294 12.1831 9.57365 12.152 9.33345 12.0675" stroke="black" stroke-linecap="round" stroke-linejoin="round"/>
<path d="M11.5127 9.60291C11.8618 9.43485 12.1635 9.18251 12.3907 8.86866C12.6178 8.55481 12.7633 8.18933 12.8139 7.80522C12.8645 7.4211 12.8186 7.03042 12.6804 6.66846C12.5423 6.30649 12.3162 5.98463 12.0225 5.73191M12.005 5.68466C12.1963 5.39839 12.2802 5.05366 12.2417 4.71151C12.2033 4.36935 12.045 4.05183 11.7949 3.81516C11.5448 3.5785 11.2191 3.43795 10.8753 3.41839C10.5316 3.39884 10.192 3.50155 9.91667 3.70833M7 3.125C7.00004 2.90647 7.04918 2.69074 7.14381 2.49376C7.23843 2.29678 7.37611 2.12359 7.54668 1.98698C7.71724 1.85037 7.91633 1.75384 8.12922 1.70452C8.34211 1.65521 8.56336 1.65436 8.77662 1.70206C8.98988 1.74975 9.18969 1.84476 9.36129 1.98007C9.53289 2.11538 9.67189 2.28752 9.76801 2.48377C9.86414 2.68002 9.91492 2.89537 9.91662 3.11389C9.91832 3.33241 9.87089 3.54852 9.77783 3.74625M9.33333 12.1667C9.33333 12.4761 9.21042 12.7728 8.99162 12.9916C8.77283 13.2104 8.47609 13.3333 8.16667 13.3333C7.85725 13.3333 7.5605 13.2104 7.34171 12.9916C7.12292 12.7728 7 12.4761 7 12.1667" stroke="black" stroke-linecap="round" stroke-linejoin="round"/>
</svg>
