<svg width="24" height="25" viewBox="0 0 24 25" fill="none" xmlns="http://www.w3.org/2000/svg">
<path d="M12 9.93647C13.1498 9.93647 14.0874 10.8536 14.0874 12C14.0874 13.0918 13.1498 14.0199 12 14.0199C10.8502 14.0199 9.91256 13.0918 9.91256 12C9.91256 10.8536 10.8502 9.93647 12 9.93647ZM6.83163 20.7345C7.53488 21.1494 9.07535 20.5161 10.8502 18.8784C10.2698 18.2343 9.70047 17.5355 9.16465 16.804C8.26518 16.7192 7.37091 16.588 6.48558 16.4109C5.91628 18.7474 6.12837 20.3524 6.83163 20.7345ZM7.62419 14.4675L7.30047 13.9107C7.17767 14.2273 7.05488 14.5439 6.97674 14.8496C7.27814 14.9151 7.61302 14.9697 7.95907 15.0243L7.62419 14.4675ZM14.9247 13.6377L15.8288 12L14.9247 10.3623C14.5898 9.78362 14.2326 9.27047 13.9088 8.75732C13.306 8.72456 12.6698 8.72456 12 8.72456C11.3302 8.72456 10.694 8.72456 10.0912 8.75732C9.76744 9.27047 9.41023 9.78362 9.07535 10.3623L8.17116 12L9.07535 13.6377C9.41023 14.2164 9.76744 14.7295 10.0912 15.2427C10.694 15.2754 11.3302 15.2754 12 15.2754C12.6698 15.2754 13.306 15.2754 13.9088 15.2427C14.2326 14.7295 14.5898 14.2164 14.9247 13.6377ZM12 6.30074C11.7879 6.54094 11.5647 6.79205 11.3414 7.08684H12.6586C12.4353 6.79205 12.2121 6.54094 12 6.30074ZM12 17.6993C12.2121 17.4591 12.4353 17.2079 12.6586 16.9132H11.3414C11.5647 17.2079 11.7879 17.4591 12 17.6993ZM17.1572 3.2655C16.4651 2.85061 14.9247 3.48386 13.1498 5.12158C13.7302 5.76575 14.2995 6.46451 14.8353 7.19602C15.7507 7.28337 16.6549 7.41439 17.5144 7.58908C18.0837 5.2526 17.8716 3.64763 17.1572 3.2655ZM16.3758 9.5325L16.6995 10.0893C16.8223 9.7727 16.9451 9.45608 17.0233 9.15037C16.7219 9.08486 16.387 9.03027 16.0409 8.97568L16.3758 9.5325ZM17.9944 1.83522C19.6354 2.75235 19.814 5.16525 19.1219 7.98213C21.9572 8.80099 24 10.1548 24 12C24 13.8452 21.9572 15.199 19.1219 16.0179C19.814 18.8347 19.6354 21.2477 17.9944 22.1648C16.3647 23.0819 14.1433 22.0338 12 20.0357C9.85674 22.0338 7.63535 23.0819 5.99442 22.1648C4.36465 21.2477 4.18605 18.8347 4.87814 16.0179C2.04279 15.199 0 13.8452 0 12C0 10.1548 2.04279 8.80099 4.87814 7.98213C4.18605 5.16525 4.36465 2.75235 5.99442 1.83522C7.63535 0.9181 9.85674 1.96624 12 3.96426C14.1433 1.96624 16.3647 0.9181 17.9944 1.83522ZM17.6707 12C18.0502 12.8189 18.3851 13.6377 18.6642 14.4675C21.0084 13.7797 22.3256 12.797 22.3256 12C22.3256 11.203 21.0084 10.2203 18.6642 9.5325C18.3851 10.3623 18.0502 11.1811 17.6707 12ZM6.3293 12C5.94977 11.1811 5.61488 10.3623 5.33581 9.5325C2.99163 10.2203 1.67442 11.203 1.67442 12C1.67442 12.797 2.99163 13.7797 5.33581 14.4675C5.61488 13.6377 5.94977 12.8189 6.3293 12ZM16.3758 14.4675L16.0409 15.0243C16.387 14.9697 16.7219 14.9151 17.0233 14.8496C16.9451 14.5439 16.8223 14.2273 16.6995 13.9107L16.3758 14.4675ZM13.1498 18.8784C14.9247 20.5161 16.4651 21.1494 17.1572 20.7345C17.8716 20.3524 18.0837 18.7474 17.5144 16.4109C16.6549 16.5856 15.7507 16.7166 14.8353 16.804C14.2995 17.5355 13.7302 18.2343 13.1498 18.8784ZM7.62419 9.5325L7.95907 8.97568C7.61302 9.03027 7.27814 9.08486 6.97674 9.15037C7.05488 9.45608 7.17767 9.7727 7.30047 10.0893L7.62419 9.5325ZM10.8502 5.12158C9.07535 3.48386 7.53488 2.85061 6.83163 3.2655C6.12837 3.64763 5.91628 5.2526 6.48558 7.58908C7.37091 7.41204 8.26518 7.28084 9.16465 7.19602C9.70047 6.46451 10.2698 5.76575 10.8502 5.12158Z" fill="#101136"/>
</svg>
