<svg width="20" height="20" viewBox="0 0 20 20" fill="none" xmlns="http://www.w3.org/2000/svg">
<path d="M11.93 7.58143C11.8145 7.2568 11.6016 6.97577 11.3203 6.77682C11.039 6.57786 10.7031 6.4707 10.3585 6.47H9.06853C8.70051 6.46807 8.34484 6.60268 8.07031 6.84779C7.79577 7.0929 7.62188 7.4311 7.58225 7.79699C7.54262 8.16289 7.64008 8.53048 7.85576 8.82868C8.07145 9.12688 8.39006 9.33452 8.74996 9.41143L10.7142 9.84C11.1159 9.92793 11.4709 10.1612 11.711 10.4949C11.9511 10.8287 12.0594 11.2394 12.0151 11.6482C11.9709 12.0569 11.7771 12.4349 11.471 12.7095C11.165 12.9841 10.7683 13.1359 10.3571 13.1357H9.2471C8.52139 13.1357 7.90425 12.6729 7.67568 12.0257M9.80282 6.47V4.80286M9.80282 14.8029V13.1371M2.85425 19.2843V15.7129H6.42568" stroke="black" stroke-linecap="round" stroke-linejoin="round"/>
<path d="M19.1257 8.29143C19.505 10.3132 19.2022 12.4036 18.2649 14.2346C17.3276 16.0657 15.8088 17.5336 13.947 18.4082C12.0851 19.2827 9.98562 19.5143 7.97795 19.0665C5.97028 18.6188 4.1681 17.517 2.85429 15.9343M0.874287 11.7086C0.495037 9.68684 0.797825 7.5964 1.73513 5.76537C2.67243 3.93433 4.19119 2.46635 6.05303 1.59182C7.91486 0.7173 10.0144 0.485742 12.0221 0.933492C14.0297 1.38124 15.8319 2.48296 17.1457 4.06571" stroke="black" stroke-linecap="round" stroke-linejoin="round"/>
<path d="M17.1458 0.71714V4.28857H13.5743" stroke="black" stroke-linecap="round" stroke-linejoin="round"/>
</svg>
