<svg width="14" height="16" viewBox="0 0 14 16" fill="none" xmlns="http://www.w3.org/2000/svg">
<path d="M5.0714 3.13204C5.47007 1.96537 7.08207 1.93004 7.55474 3.02604L7.59474 3.13271L8.13274 4.70604C8.25603 5.06686 8.45527 5.39705 8.71702 5.67432C8.97877 5.9516 9.29694 6.16952 9.65007 6.31337L9.79474 6.36737L11.3681 6.90471C12.5347 7.30337 12.5701 8.91537 11.4747 9.38804L11.3681 9.42804L9.79474 9.96604C9.43379 10.0893 9.10348 10.2885 8.82608 10.5502C8.54869 10.812 8.33067 11.1302 8.18674 11.4834L8.13274 11.6274L7.5954 13.2014C7.19674 14.368 5.58474 14.4034 5.11274 13.308L5.0714 13.2014L4.53407 11.628C4.41086 11.2671 4.21165 10.9368 3.9499 10.6594C3.68814 10.382 3.36993 10.164 3.01674 10.02L2.87274 9.96604L1.2994 9.42871C0.132069 9.03004 0.0967363 7.41804 1.19274 6.94604L1.2994 6.90471L2.87274 6.36737C3.23356 6.24408 3.56374 6.04484 3.84102 5.78309C4.11829 5.52134 4.33621 5.20317 4.48007 4.85004L4.53407 4.70604L5.0714 3.13204ZM6.3334 3.56271L5.79607 5.13604C5.60833 5.68624 5.30292 6.18891 4.90109 6.60904C4.49927 7.02917 4.0107 7.35666 3.4694 7.56871L3.30274 7.62937L1.7294 8.16671L3.30274 8.70404C3.85294 8.89178 4.35561 9.1972 4.77573 9.59902C5.19586 10.0008 5.52335 10.4894 5.7354 11.0307L5.79607 11.1974L6.3334 12.7707L6.87074 11.1974C7.05848 10.6472 7.36389 10.1445 7.76571 9.72438C8.16753 9.30425 8.65611 8.97676 9.1974 8.76471L9.36407 8.70471L10.9374 8.16671L9.36407 7.62937C8.81387 7.44163 8.3112 7.13622 7.89107 6.7344C7.47094 6.33258 7.14345 5.84401 6.9314 5.30271L6.8714 5.13604L6.3334 3.56271ZM11.6667 0.833374C11.7915 0.833374 11.9137 0.86836 12.0195 0.934355C12.1253 1.00035 12.2105 1.09471 12.2654 1.20671L12.2974 1.28471L12.5307 1.96871L13.2154 2.20204C13.3404 2.2445 13.45 2.32312 13.5302 2.42792C13.6105 2.53272 13.6578 2.65899 13.6663 2.79072C13.6747 2.92246 13.6438 3.05373 13.5775 3.1679C13.5113 3.28207 13.4126 3.374 13.2941 3.43204L13.2154 3.46404L12.5314 3.69737L12.2981 4.38204C12.2555 4.50699 12.1769 4.61651 12.072 4.6967C11.9672 4.7769 11.8409 4.82417 11.7092 4.83252C11.5774 4.84088 11.4462 4.80994 11.3321 4.74363C11.2179 4.67732 11.1261 4.57862 11.0681 4.46004L11.0361 4.38204L10.8027 3.69804L10.1181 3.46471C9.99308 3.42224 9.88351 3.34363 9.80325 3.23883C9.72299 3.13403 9.67564 3.00776 9.66722 2.87603C9.65879 2.74429 9.68967 2.61302 9.75592 2.49885C9.82218 2.38468 9.92084 2.29275 10.0394 2.23471L10.1181 2.20271L10.8021 1.96937L11.0354 1.28471C11.0804 1.15299 11.1654 1.03865 11.2786 0.957707C11.3918 0.876767 11.5276 0.833291 11.6667 0.833374Z" fill="black"/>
</svg>
